<?xml version="1.0" encoding="utf-8"?>
<!-- Generator: Adobe Illustrator 22.0.0, SVG Export Plug-In . SVG Version: 6.00 Build 0)  -->
<svg version="1.1" id="Layer_1" xmlns="http://www.w3.org/2000/svg" xmlns:xlink="http://www.w3.org/1999/xlink" x="0px" y="0px"
	 viewBox="0 0 1280 640" style="enable-background:new 0 0 1280 640;" xml:space="preserve">
<style type="text/css">
	.st0{fill:#FFFFFF;}
</style>
<g transform="translate(0.000000,640.000000) scale(0.100000,-0.100000)">
	<g>
		<g>
			<path class="st0" d="M9417,967.6l-3.1,1057.4H4564c-2534.6,0-3714.2,0.8-4195.6,5.1c-4.7,561.2-4.7,1773.8,0.1,2338.2
				c394.5,6.5,1222.8,6.8,2665.2,6.8L4569,4375h4844.9l3.1,1057.9l0.4,89.1c747.8-600.6,2243.9-1806.1,2855.1-2300.7
				c-186.1-151.9-597-488.4-1156-946.1l-517.7-423.9c-496.2-406.2-900.2-736.6-1181.5-966.4L9417,967.6z"/>
			<path d="M9680.7,4970.4c679.4-546.5,1601.8-1289.8,2171.7-1750.2c-215.4-176.2-521.1-426.5-903.8-739.9l-517.7-423.9
				c-281.7-230.6-533.7-436.8-750.4-614l-0.9,319.1l-1.5,528.5h-528.5H4564c-2071.5,0-3303.5,0.4-3932.3,3.4
				c-2.5,519.2-2.5,1292.5,0.1,1812.9c460.7,3.6,1240.6,3.8,2401.9,3.8L4569,4110h4580.7h528.5l1.5,528.5L9680.7,4970.4
				 M9154.8,6071.6l-2.8-637.9l-2.3-793.7H4569l-1535.3,0.1c-1953.4,0-2724.8-0.8-2926.7-15.1c-9.4-360-9.4-2521.6,0-2855.4
				c201-8.4,1222-9.6,4457-9.6h4585.7l2.3-793.6l2.8-637.6c104.2,84.3,711.5,580.4,1611.9,1317.5l517.7,423.9
				c658.7,539.4,1179.2,965.6,1254.6,1026.3c68.3,56.4,121.5,104,147.9,129.6C12387.9,3471.7,9395.9,5882.2,9154.8,6071.6
				L9154.8,6071.6z"/>
		</g>
		<path d="M9253.9,5864.6c629.4-504.1,2763.6-2223.6,3279.3-2642.3c-17.3-14.9-36.6-31.1-57.4-48.3
			c-77.5-62.4-596.4-487.3-1252.5-1024.6l-519.9-425.7C10023.4,1166.9,9508.6,746,9254,538.4l-1.9,428.2l-2,694l-0.6,199.4H9050
			H4564c-2878.2,0-4011.9,1-4358.9,7c-6.9,488.1-6.9,2164.9,0.1,2662.7c295.3,9.8,1106.3,10.4,2828,10.4h663.3H4569h4481h199.4
			l0.6,199.4l2,693.7L9253.9,5864.6 M9144,6180.2c-24.7,0-48.9-8.9-65-26.2l-24-26l-3-694l-2-694H4569
			c-583.3,0-1092.2,0.1-1535.8,0.1C-238.9,4740.1,30.3,4737,10,4685c-13-35-14-2934,0-2969c5-14,23-32,39-41c27-13,486-15,4515-15
			h4486l2-694l3-694l24-26c16.1-17.3,40.4-26.2,65-26.2c19.6,0,39.6,5.6,56,17.2c14,10,747,609,1630,1332s1680,1376,1772,1450
			c91,75,174,150,183,167c19,32,16,65-8,95c-11,15-3526,2846-3577,2882C9183.6,6174.5,9163.7,6180.2,9144,6180.2L9144,6180.2z"/>
	</g>
</g>
</svg>
